# xmcd
#
# Track frame offsets:
#	150
#	12744
#	25985
#	39601
#	53811
#	67562
#	81176
#	93352
#	106655
#	120712
#	136020
#	150990
#	165613
#	180970
#	195977
#	210784
#	223971
#	238023
#	250203
#	262892
#	275037
#	288731
#	301829
#	317804
#
# Disc length: 4391 seconds
#
# Revision: 2
# Processed by: cddbd v1.5.1PL0 Copyright (c) Steve Scherf et al.
# Submitted via: audiograbber 1.83.01
#
DISCID=40112518
DTITLE=Female Blues  - The Remaining Titles, Vol. 1 (1921-1928) - DOCD-1005
DYEAR=1997
DGENRE=Blues
TTITLE0=When The Rain Turns Into Snow (Who's Gonna Keep You Warm)
TTITLE1=Who'll Drive Your Blues Away
TTITLE2=Four O'Clock Blues
TTITLE3=How I've Got Dem Twilight Blues
TTITLE4=Aggravatin' Papa, Don't You Try To Two-Time Me
TTITLE5=Sugar Blues
TTITLE6=Mistreatin' Daddy
TTITLE7=Love Ain't Blind No More
TTITLE8=Mississippi Blues
TTITLE9=The Man Ain't Born Who Can Treat Me Like You Do
TTITLE10=Do Right Blues
TTITLE11=I Don't Know And I Don't Care Blues
TTITLE12=You're Gonna Wake Up Some Morning, But Your Papa Will Be Gone
TTITLE13=Lake Ponchartrain Blues
TTITLE14=Gravier Street Blues
TTITLE15=Fkira;s Weary Blues
TTITLE16=Crepe Hanger Blues
TTITLE17=You Don't Want Me Honey
TTITLE18=Don't Never Figure
TTITLE19=Two Faced Man
TTITLE20=Misery
TTITLE21=Numbers On The Brain
TTITLE22=Shipwrecked Blues
TTITLE23=Poplar Bluff Blues
EXTD=Document Records, Austria
EXTT0=
EXTT1=
EXTT2=
EXTT3=
EXTT4=
EXTT5=
EXTT6=
EXTT7=
EXTT8=
EXTT9=
EXTT10=
EXTT11=
EXTT12=
EXTT13=
EXTT14=
EXTT15=
EXTT16=
EXTT17=
EXTT18=
EXTT19=
EXTT20=
EXTT21=
EXTT22=
EXTT23=
PLAYORDER=
